# File created by Blade
# Date/Time:  Tue Apr 07 21:12:38 2015
# Frame Rate: 120.000 fps
#------------------------------------------------------
:FULLY-SPECIFIED
:DEGREES
1045
root 6.748884 27.127061 9.626243 737.695674 -66.312666 -501.276265
Spine -66.958454 -23.794961 4.782217
Head -78.875360 2.208407 9.966112
LeftShoulder -12.144468 0.208368 38.577320
LeftArm 156.615939 -30.291148 -131.460991
LeftForeArm 32.526802 -0.000000 115.118724
LeftHand -14.091749 -0.000000 -6.311082
LeftHandThumb1 -26.253704 0.000000 33.147579
RightShoulder -22.407391 56.327385 -53.668208
RightArm 82.313577 48.460550 89.841360
RightForeArm -28.749856 -0.000000 119.810760
RightHand -7.058313 0.000000 12.762151
RightHandThumb1 -24.326973 -0.000000 -32.862282
LeftUpLeg 16.372644 -6.684934 19.635340
LeftLeg 22.199728 -0.000000 -0.000000
LeftFoot 41.698821 10.026811 1.311985
LeftToeBase 106.805690 -0.000000 -0.000000
RightUpLeg -115.624348 -25.715147 2.762798
RightLeg 131.283613 -0.000000 -0.000000
RightFoot 49.425238 3.970498 -2.728628
RightToeBase 36.306919 -0.000000 -0.000000
1046
root 6.742526 27.123009 9.639427 737.655858 -66.294274 -501.227330
Spine -66.993038 -23.796686 4.887863
Head -78.893686 2.232377 9.913071
LeftShoulder -12.229044 0.266415 38.493882
LeftArm 156.623646 -30.285066 -131.433568
LeftForeArm 32.571688 -0.000000 115.133765
LeftHand -14.134851 -0.000000 -6.295643
LeftHandThumb1 -26.253704 0.000000 33.147579
RightShoulder -22.449587 56.353973 -53.736708
RightArm 82.328662 48.385750 89.938189
RightForeArm -28.682046 -0.000000 119.798630
RightHand -6.993399 -0.000000 12.680865
RightHandThumb1 -24.326973 -0.000000 -32.862282
LeftUpLeg 16.460628 -6.736345 19.681734
LeftLeg 22.146909 -0.000000 -0.000000
LeftFoot 41.748827 10.076382 1.184751
LeftToeBase 107.169271 -0.000000 -0.000000
RightUpLeg -115.447516 -25.757719 2.757006
RightLeg 131.332483 -0.000000 -0.000000
RightFoot 49.423418 3.935135 -2.687177
RightToeBase 36.349849 -0.000000 -0.000000
1047
root 6.730327 27.115294 9.649182 737.603664 -66.319889 -501.067458
Spine -67.098006 -23.773851 4.944122
Head -78.928295 2.207978 9.881469
LeftShoulder -12.305290 0.320063 38.448861
LeftArm 156.648498 -30.261902 -131.454525
LeftForeArm 32.533428 -0.000000 115.128679
LeftHand -14.080683 0.000000 -6.255958
LeftHandThumb1 -26.253704 0.000000 33.147579
RightShoulder -22.477483 56.365603 -53.767840
RightArm 82.392018 48.329822 90.023927
RightForeArm -28.629578 0.000000 119.745647
RightHand -6.940406 -0.000000 12.581175
RightHandThumb1 -24.326973 -0.000000 -32.862282
LeftUpLeg 16.452774 -6.757085 19.667208
LeftLeg 22.133121 -0.000000 -0.000000
LeftFoot 41.777309 9.924243 1.326798
LeftToeBase 106.878090 -0.000000 -0.000000
RightUpLeg -115.389613 -25.743412 2.758240
RightLeg 131.376546 -0.000000 -0.000000
RightFoot 49.422070 3.888354 -2.694490
RightToeBase 36.249315 -0.000000 -0.000000
1048
root 6.714281 27.108537 9.657327 737.558508 -66.355460 -500.905409
Spine -67.204110 -23.749319 4.997315
Head -78.946244 2.175343 9.871840
LeftShoulder -12.355685 0.366289 38.422687
LeftArm 156.697508 -30.259366 -131.506852
LeftForeArm 32.505956 0.000000 115.137837
LeftHand -14.077023 -0.000000 -6.277068
LeftHandThumb1 -26.253704 0.000000 33.147579
RightShoulder -22.478396 56.438334 -53.761415
RightArm 82.410258 48.267788 90.023392
RightForeArm -28.641426 0.000000 119.675424
RightHand -6.855164 -0.000000 12.513467
RightHandThumb1 -24.326973 -0.000000 -32.862282
LeftUpLeg 16.437477 -6.796847 19.648210
LeftLeg 22.125252 -0.000000 -0.000000
LeftFoot 41.757129 9.924781 1.215992
LeftToeBase 106.762100 -0.000000 -0.000000
RightUpLeg -115.357181 -25.709053 2.748958
RightLeg 131.418836 -0.000000 -0.000000
RightFoot 49.439729 3.830192 -2.670370
RightToeBase 36.184243 -0.000000 -0.000000
